<svg width="128" height="128" viewBox="0 0 128 128" fill="none" xmlns="http://www.w3.org/2000/svg">
<rect width="128" height="128" rx="7.55556" fill="white"/>
<path d="M73.2775 22.1008C73.4276 22.1008 73.5026 22.2508 73.5026 22.551C73.5026 22.8512 73.4276 23.0012 73.2775 23.0012C69.1754 23.0012 67.1243 25.6026 67.1243 30.8053V69.9755C67.1243 70.0756 66.9993 70.1506 66.7492 70.2006C66.549 70.2506 66.399 70.2256 66.2989 70.1256L31.1057 28.404V60.3705C31.1057 63.0219 31.581 64.9729 32.5315 66.2236C33.532 67.4742 35.0328 68.0995 37.0338 68.0995C37.1839 68.0995 37.2589 68.2496 37.2589 68.5498C37.2589 68.8499 37.1839 69 37.0338 69C35.7331 69 34.7326 68.975 34.0322 68.925L30.2053 68.8499L26.1532 68.925C25.4028 68.975 24.3022 69 22.8515 69C22.7514 69 22.7014 68.8499 22.7014 68.5498C22.7014 68.2496 22.7514 68.0995 22.8515 68.0995C25.0026 68.0995 26.5784 67.4742 27.5789 66.2236C28.6295 64.9729 29.1547 63.0219 29.1547 60.3705V26.3029C26.9536 24.1018 24.7775 23.0012 22.6264 23.0012C22.4763 23.0012 22.4012 22.8512 22.4012 22.551C22.4012 22.2508 22.4763 22.1008 22.6264 22.1008L25.5529 22.1758C26.1532 22.2258 27.0036 22.2508 28.1042 22.2508L32.0062 22.1758C32.4564 22.1258 33.0317 22.1008 33.7321 22.1008C34.1323 22.1008 34.4074 22.2008 34.5575 22.4009C34.7576 22.551 35.0578 22.9262 35.458 23.5265C35.9082 24.2269 36.5335 25.0523 37.334 26.0028L65.2484 59.6952V30.8053C65.2484 28.1539 64.7731 26.2029 63.8226 24.9522C62.8721 23.6516 61.3964 23.0012 59.3954 23.0012C59.2953 23.0012 59.2453 22.8512 59.2453 22.551C59.2453 22.2508 59.2953 22.1008 59.3954 22.1008L62.3969 22.1758C63.8977 22.2759 65.1733 22.3259 66.2239 22.3259C67.1243 22.3259 68.425 22.2759 70.1259 22.1758L73.2775 22.1008Z" fill="#3D3B3A"/>
<path d="M103.381 104.937C103.532 104.937 103.607 105.087 103.607 105.387C103.607 105.687 103.532 105.837 103.381 105.837H94.9771L92.6509 105.912C91.9506 105.912 91.4003 105.812 91.0001 105.612C90.6499 105.412 90.2247 105.037 89.7244 104.486C89.2742 103.936 88.4988 102.911 87.3982 101.41C86.948 100.86 86.3477 100.084 85.5973 99.0837C84.8469 98.0332 83.8214 96.6574 82.5207 94.9566L71.6401 80.8493L69.3889 83.0254V99.759C69.3889 101.26 69.539 102.385 69.8391 103.136C70.1393 103.836 70.6896 104.311 71.49 104.562C72.3404 104.812 73.6661 104.937 75.467 104.937C75.6171 104.937 75.6922 105.087 75.6922 105.387C75.6922 105.687 75.6171 105.837 75.467 105.837C73.8662 105.837 72.6156 105.812 71.7151 105.762L66.3874 105.687L61.1346 105.762C60.1842 105.812 58.8835 105.837 57.2326 105.837C57.1326 105.837 57.0825 105.687 57.0825 105.387C57.0825 105.087 57.1326 104.937 57.2326 104.937C59.0336 104.937 60.3592 104.812 61.2097 104.562C62.0601 104.311 62.6354 103.836 62.9356 103.136C63.2357 102.385 63.3858 101.26 63.3858 99.759V65.0161C63.3858 63.5153 63.2357 62.4148 62.9356 61.7144C62.6354 61.014 62.0601 60.5388 61.2097 60.2887C60.4093 59.9885 59.1336 59.8384 57.3827 59.8384C57.2326 59.8384 57.1576 59.6883 57.1576 59.3882C57.1576 59.088 57.2326 58.938 57.3827 58.938L61.1346 59.013C63.3358 59.113 65.0867 59.1631 66.3874 59.1631C67.7881 59.1631 69.589 59.113 71.7901 59.013L75.467 58.938C75.5671 58.938 75.6171 59.088 75.6171 59.3882C75.6171 59.6883 75.5671 59.8384 75.467 59.8384C73.7161 59.8384 72.4155 59.9885 71.565 60.2887C70.7146 60.5888 70.1393 61.1141 69.8391 61.8645C69.539 62.5648 69.3889 63.6654 69.3889 65.1662V81.0744L84.7719 65.5414C86.3727 63.9405 87.1731 62.6899 87.1731 61.7894C87.1731 60.4888 85.6973 59.8384 82.7458 59.8384C82.5957 59.8384 82.5207 59.6883 82.5207 59.3882C82.5207 59.088 82.5957 58.938 82.7458 58.938L86.0475 59.013C88.0485 59.113 89.9495 59.1631 91.7505 59.1631C93.5514 59.1631 95.4023 59.113 97.3033 59.013L100.305 58.938C100.455 58.938 100.53 59.088 100.53 59.3882C100.53 59.6883 100.455 59.8384 100.305 59.8384C98.1538 59.8384 95.8526 60.3637 93.4013 61.4142C90.95 62.4148 88.6989 63.9405 86.6478 65.9916L75.8422 76.7221L86.7229 90.9045C90.2747 95.6069 92.9511 98.9336 94.752 100.885C96.603 102.786 98.0287 103.936 99.0292 104.336C100.08 104.737 101.531 104.937 103.381 104.937Z" fill="#3D3B3A"/>
<path d="M83.8389 34.152L82.6956 33.2799C84.2852 31.1963 87.1589 30.8333 89.2088 32.164C91.442 33.6137 92.1648 36.7345 90.4137 39.03L87.1594 36.5476L90.4137 39.0301L41.2372 103.495C39.6477 105.579 36.7739 105.942 34.724 104.611L34.724 104.611C32.4908 103.161 31.768 100.041 33.5192 97.7451M83.8389 34.152L33.5192 97.7451M83.8389 34.152L82.6956 33.2799L33.5192 97.7451M83.8389 34.152L33.5192 97.7451" fill="#3D3B3A" stroke="white" stroke-width="8.18605" stroke-linecap="round" stroke-linejoin="round"/>
</svg>