<svg width="34" height="36" viewBox="0 0 34 36" fill="none" xmlns="http://www.w3.org/2000/svg">
<path d="M21.1094 0C21.1717 0 21.2028 0.06227 21.2028 0.186809C21.2028 0.311348 21.1717 0.373617 21.1094 0.373617C19.4074 0.373617 18.5564 1.45296 18.5564 3.61164V19.864C18.5564 19.9055 18.5045 19.9367 18.4007 19.9574C18.3177 19.9782 18.2554 19.9678 18.2139 19.9263L3.61164 2.61532V15.8788C3.61164 16.9789 3.80883 17.7884 4.2032 18.3073C4.61833 18.8262 5.24103 19.0856 6.07129 19.0856C6.13356 19.0856 6.16469 19.1479 6.16469 19.2724C6.16469 19.397 6.13356 19.4593 6.07129 19.4593C5.53162 19.4593 5.11649 19.4489 4.8259 19.4281L3.23802 19.397L1.55674 19.4281C1.24539 19.4489 0.788749 19.4593 0.186809 19.4593C0.145296 19.4593 0.124539 19.397 0.124539 19.2724C0.124539 19.1479 0.145296 19.0856 0.186809 19.0856C1.07934 19.0856 1.73317 18.8262 2.1483 18.3073C2.58419 17.7884 2.80213 16.9789 2.80213 15.8788V1.74355C1.88885 0.830261 0.985936 0.373617 0.0934044 0.373617C0.0311348 0.373617 0 0.311348 0 0.186809C0 0.06227 0.0311348 0 0.0934044 0L1.30766 0.0311339C1.55674 0.0518902 1.9096 0.0622689 2.36625 0.0622689L3.98526 0.0311339C4.17207 0.0103776 4.41077 0 4.70136 0C4.86741 0 4.98157 0.0415127 5.04384 0.124538C5.12687 0.186808 5.25141 0.342483 5.41746 0.591562C5.60427 0.882153 5.86372 1.22464 6.19583 1.61901L17.778 15.5985V3.61164C17.778 2.51154 17.5808 1.70204 17.1864 1.18312C16.792 0.643452 16.1797 0.373617 15.3495 0.373617C15.308 0.373617 15.2872 0.311348 15.2872 0.186809C15.2872 0.06227 15.308 0 15.3495 0L16.5949 0.0311339C17.2176 0.0726465 17.7468 0.0934028 18.1827 0.0934028C18.5564 0.0934028 19.096 0.0726465 19.8017 0.0311339L21.1094 0Z" fill="#1F2937"/>
<path d="M33.6 34.37C33.6623 34.37 33.6934 34.4323 33.6934 34.5568C33.6934 34.6814 33.6623 34.7436 33.6 34.7436H30.1129L29.1477 34.7748C28.8571 34.7748 28.6288 34.7332 28.4628 34.6502C28.3175 34.5672 28.141 34.4115 27.9335 34.1832C27.7467 33.9549 27.4249 33.5294 26.9683 32.9067C26.7815 32.6783 26.5324 32.3566 26.2211 31.9415C25.9097 31.5056 25.4842 30.9348 24.9445 30.2291L20.43 24.3757L19.4959 25.2786V32.2217C19.4959 32.8444 19.5582 33.3114 19.6827 33.6228C19.8073 33.9134 20.0356 34.1105 20.3677 34.2143C20.7206 34.3181 21.2706 34.37 22.0179 34.37C22.0801 34.37 22.1113 34.4323 22.1113 34.5568C22.1113 34.6814 22.0801 34.7436 22.0179 34.7436C21.3536 34.7436 20.8347 34.7332 20.4611 34.7125L18.2505 34.6814L16.0711 34.7125C15.6767 34.7332 15.1371 34.7436 14.4521 34.7436C14.4106 34.7436 14.3898 34.6814 14.3898 34.5568C14.3898 34.4323 14.4106 34.37 14.4521 34.37C15.1993 34.37 15.7494 34.3181 16.1022 34.2143C16.4551 34.1105 16.6938 33.9134 16.8183 33.6228C16.9429 33.3114 17.0052 32.8444 17.0052 32.2217V17.8063C17.0052 17.1836 16.9429 16.7269 16.8183 16.4364C16.6938 16.1458 16.4551 15.9486 16.1022 15.8448C15.7701 15.7203 15.2408 15.658 14.5144 15.658C14.4521 15.658 14.421 15.5957 14.421 15.4712C14.421 15.3466 14.4521 15.2844 14.5144 15.2844L16.0711 15.3155C16.9844 15.357 17.7109 15.3778 18.2505 15.3778C18.8317 15.3778 19.579 15.357 20.4923 15.3155L22.0179 15.2844C22.0594 15.2844 22.0801 15.3466 22.0801 15.4712C22.0801 15.5957 22.0594 15.658 22.0179 15.658C21.2914 15.658 20.7517 15.7203 20.3988 15.8448C20.046 15.9693 19.8073 16.1873 19.6827 16.4986C19.5582 16.7892 19.4959 17.2459 19.4959 17.8686V24.4691L25.8786 18.0242C26.5428 17.36 26.8749 16.8411 26.8749 16.4675C26.8749 15.9278 26.2626 15.658 25.0379 15.658C24.9757 15.658 24.9445 15.5957 24.9445 15.4712C24.9445 15.3466 24.9757 15.2844 25.0379 15.2844L26.4079 15.3155C27.2381 15.357 28.0269 15.3778 28.7741 15.3778C29.5213 15.3778 30.2893 15.357 31.0781 15.3155L32.3235 15.2844C32.3858 15.2844 32.4169 15.3466 32.4169 15.4712C32.4169 15.5957 32.3858 15.658 32.3235 15.658C31.4309 15.658 30.4761 15.8759 29.4591 16.3118C28.442 16.7269 27.508 17.36 26.6569 18.211L22.1735 22.6633L26.6881 28.5478C28.1618 30.4989 29.2723 31.8792 30.0195 32.6887C30.7875 33.4775 31.3791 33.9549 31.7942 34.1209C32.2301 34.287 32.832 34.37 33.6 34.37Z" fill="#1F2937"/>
<path d="M23.6798 3.21626C24.9509 1.53169 27.347 1.19651 29.0315 2.46761C30.7161 3.73872 31.0513 6.13477 29.7802 7.81934L9.663 34.4802C8.39189 36.1648 5.99584 36.5 4.31127 35.2289C2.6267 33.9578 2.29152 31.5617 3.56263 29.8772L23.6798 3.21626Z" fill="white"/>
<path fill-rule="evenodd" clip-rule="evenodd" d="M26.7949 5.35864C26.9335 5.4486 26.9667 5.62516 26.8692 5.753L6.4651 32.5006C6.36758 32.6285 6.17618 32.6592 6.03759 32.5692C5.89901 32.4793 5.86572 32.3027 5.96325 32.1749L26.3674 5.42722C26.4649 5.29938 26.6563 5.26868 26.7949 5.35864Z" fill="#1F2937"/>
</svg>
